<svg width="82" height="112" viewBox="0 0 82 112" fill="none" xmlns="http://www.w3.org/2000/svg">
<path opacity="0.21" d="M103.829 -9.09913C103.199 -9.76376 102.292 -10.1992 101.109 -10.2026C100.223 -10.1885 99.5485 -9.96921 99.0187 -9.60678C97.9525 -9.03414 97.162 -7.9666 97.1223 -6.40022C96.6993 -5.03791 96.3595 -3.57536 95.5888 -2.50084C94.6431 -1.53814 93.3329 -0.935474 91.8689 -0.905088C91.8669 -0.905088 91.8647 -0.90509 91.8626 -0.905273C91.7232 -0.902245 91.5891 -0.894073 91.4598 -0.881405C89.2443 -0.665951 88.4751 0.925947 87.9015 2.73248C87.3636 4.41581 86.9961 6.28512 85.7951 7.40095C85.0755 8.06576 84.0566 8.46261 82.5238 8.39211C82.4947 8.39257 82.4661 8.39229 82.4372 8.39229C79.5848 8.37641 77.9185 6.47047 77.4643 4.27214C77.2169 3.06011 77.335 1.75912 77.8222 0.637329C78.5465 -1.01874 80.0831 -2.28465 82.4455 -2.29861C82.4508 -2.29861 82.4559 -2.29879 82.4611 -2.29879C82.4668 -2.29898 82.4723 -2.29943 82.4779 -2.29953C84.681 -2.34286 86.302 -3.88977 86.4519 -6.05046C86.8801 -7.43545 87.2055 -8.93068 88.0021 -10.0197C89.0758 -10.8205 90.5555 -11.1655 91.9333 -11.5959C93.5139 -11.6223 94.5878 -12.4354 95.156 -13.5309C95.5017 -14.0523 95.7124 -14.7123 95.731 -15.5714C95.7463 -16.8165 95.2876 -17.7567 94.5846 -18.3939C93.9491 -19.0758 93.0253 -19.5171 91.8135 -19.4995C90.8423 -19.5024 89.9663 -19.169 89.2864 -18.6019C88.4177 -17.9581 87.8264 -16.9261 87.8526 -15.5079C87.8239 -13.7056 86.935 -12.1281 85.5848 -11.1716C83.5601 -9.90908 80.6434 -10.0819 78.8362 -11.6666C77.9826 -12.7728 77.6354 -14.3387 77.1822 -15.7801C77.0263 -17.9293 75.3694 -19.5101 73.2295 -19.4996C73.2275 -19.4996 73.2254 -19.4996 73.2234 -19.4996C68.143 -19.5397 68.137 -11.5259 73.2798 -11.5963C73.281 -11.5963 73.2824 -11.5963 73.2837 -11.5963C75.0537 -11.5662 76.5854 -10.737 77.5407 -9.45072C78.917 -7.35126 78.7225 -4.20988 76.9891 -2.37774C75.1335 -0.726446 72.0643 -0.608942 70.0185 -2.01632C68.7683 -2.98867 67.9559 -4.51373 67.9258 -6.24801C67.9258 -6.25031 67.9258 -6.2526 67.9258 -6.2549C67.9256 -6.256 67.9256 -6.25701 67.9256 -6.25793C67.943 -7.74986 67.2912 -8.80308 66.356 -9.42521C65.7012 -9.91725 64.8831 -10.2034 63.9818 -10.2023C62.7715 -10.2069 61.8469 -9.76147 61.2096 -9.0805C60.5015 -8.44203 60.0368 -7.50595 60.0467 -6.27666C60.0754 -5.42769 60.2861 -4.77206 60.6257 -4.25293C61.1894 -3.16667 62.2576 -2.35387 63.835 -2.30182C65.2194 -1.86917 66.7082 -1.53052 67.7853 -0.724886C68.7185 0.221754 69.2856 1.53348 69.3153 3.03872C69.3151 3.04101 69.3151 3.04313 69.315 3.0456C69.3169 3.08792 69.3194 3.12988 69.3221 3.17137C69.4019 4.4584 69.9184 5.28488 70.6704 5.86725C73.2842 7.90043 78.7386 6.95343 78.5913 12.1808C78.5895 12.2423 78.587 12.3044 78.5835 12.3678C78.5853 12.5841 78.5764 12.7937 78.5578 12.9964C78.2732 16.0476 75.7323 17.5708 73.206 17.5506C70.6707 17.5221 68.1501 15.9392 67.9398 12.8052C67.9297 12.6525 67.9249 12.4963 67.926 12.3363C67.8621 10.6823 67.1213 9.76645 66.0835 9.16461C63.3279 7.55995 58.48 8.18024 58.6577 3.06194C58.6577 3.05735 58.6572 3.05286 58.6572 3.04827C58.6689 1.58085 58.0393 0.5347 57.1316 -0.0950451C56.475 -0.604717 55.6483 -0.903067 54.7327 -0.90472C53.842 -0.881586 53.1647 -0.651541 52.6343 -0.277731C51.6013 0.299231 50.8369 1.34345 50.7822 2.84943C50.3514 4.2222 50.0164 5.7032 49.2486 6.79039C48.2831 7.78779 46.938 8.3978 45.4404 8.39211C45.4403 8.39211 45.4402 8.39211 45.44 8.39211C45.44 8.39211 45.4397 8.39211 45.4395 8.39211C45.436 8.39229 45.4326 8.39239 45.4292 8.39257C44.0362 8.46068 43.0712 8.1291 42.3691 7.55508C40.9574 6.39244 40.6099 4.2367 39.9729 2.3919C39.3724 0.639439 38.5106 -0.832106 36.2153 -0.904261C36.2086 -0.904444 36.2018 -0.904907 36.1951 -0.904999H36.1949C36.1947 -0.904999 36.1945 -0.905178 36.1943 -0.905178C36.1936 -0.904995 36.1932 -0.904999 36.1927 -0.904999C34.0819 -0.906836 32.3833 0.719122 32.2497 2.83153C31.8138 4.23129 31.4842 5.74571 30.6795 6.84198C29.5936 7.63944 28.1011 7.96635 26.7181 8.39505C25.1359 8.43912 24.0737 9.26761 23.5241 10.3729C23.2008 10.888 23.0007 11.5358 22.9729 12.3702C22.9782 13.5659 23.4171 14.4816 24.0854 15.1166C24.7187 15.8302 25.6502 16.301 26.8768 16.2964C27.7277 16.2735 28.3849 16.0642 28.906 15.7228C29.9827 15.1648 30.7894 14.108 30.8481 12.5495C31.2881 11.156 31.6256 9.65005 32.4174 8.55717C33.3669 7.59052 34.6794 7.00502 36.1598 6.99869C36.1627 6.99887 36.1656 6.99905 36.1685 6.99915C36.2081 6.99703 36.2469 6.99547 36.2858 6.99391C37.4826 6.95168 38.3585 7.19798 39.0203 7.63559C40.5548 8.65943 40.9398 10.7269 41.5297 12.5861C42.0355 14.1967 42.6958 15.651 44.4043 16.1351C44.707 16.2212 45.0423 16.2764 45.4154 16.2964C45.4157 16.2964 45.4161 16.2964 45.4164 16.2964C46.9568 16.3327 48.2675 16.8895 49.2079 17.8242C50.0168 18.9109 50.3483 20.4172 50.7818 21.8149C50.841 23.4069 51.6712 24.4803 52.7721 25.0387C53.285 25.3618 53.9284 25.5629 54.7551 25.5934C55.6444 25.5853 56.4606 25.2828 57.1145 24.778C58.0201 24.1536 58.6532 23.1212 58.657 21.6822V21.682C58.657 21.6817 58.657 21.6815 58.657 21.6812C58.6852 19.9347 59.4639 18.4164 60.6832 17.441C62.6012 16.0676 65.4615 16.0802 67.357 17.4816C68.5307 18.445 69.2762 19.9214 69.3151 21.6328C69.315 21.639 69.3153 21.645 69.3151 21.6511C69.3173 21.6945 69.3199 21.7374 69.3228 21.7798C69.4051 23.0196 69.8921 23.8318 70.6037 24.4101C71.7933 25.3811 73.6094 25.6909 75.2101 26.2534C75.7979 26.4604 76.3567 26.7011 76.8448 27.0207C76.8487 27.0232 76.8528 27.026 76.8567 27.0286C76.8806 27.0445 76.9046 27.0603 76.9282 27.0766C77.965 27.7887 78.6597 28.8839 78.5909 30.82C78.5889 30.8707 78.5866 30.9216 78.5836 30.9733C78.5856 31.2771 78.5662 31.5672 78.5283 31.8442C78.1284 34.7443 75.6378 36.181 73.1707 36.1448C70.5221 36.1019 67.9013 34.3612 67.9258 30.9208C67.9046 29.606 67.2965 28.469 66.3505 27.7603C65.7032 27.2753 64.8976 26.991 64.0137 26.9873C63.6918 26.9958 63.3981 27.031 63.1286 27.0903C60.6822 27.626 60.2684 30.1298 59.551 32.3911C59.0894 33.8413 58.5035 35.1917 57.1803 35.8589C56.564 36.169 55.7872 36.331 54.789 36.2874C54.7667 36.2865 54.7447 36.2858 54.722 36.2846C54.7218 36.2846 54.7217 36.2846 54.7214 36.2846H54.7211C54.7149 36.2849 54.7089 36.2851 54.7027 36.2854C53.6284 36.3366 52.808 36.1518 52.1667 35.8023C50.3754 34.8208 49.9801 32.5431 49.3291 30.5488C48.7992 28.915 48.097 27.4717 46.3084 27.0868C46.0409 27.0289 45.7494 26.9947 45.4303 26.9873C45.3824 26.9872 45.3352 26.988 45.2883 26.9892C42.5274 27.0518 41.3222 29.508 41.6742 31.6655C41.8416 32.7091 42.3749 33.6825 43.2775 34.2815C43.8566 34.6675 44.5871 34.8979 45.4689 34.8912C45.5012 34.891 45.5328 34.8915 45.5647 34.8918C45.8556 34.8944 46.1341 34.9155 46.3997 34.9545C49.5861 35.4248 50.9766 38.4246 50.5858 41.1178C50.2384 43.4743 48.5269 45.5961 45.4738 45.5827C44.0551 45.5737 43.0268 46.1723 42.3894 47.0435C41.8376 47.7176 41.5106 48.5784 41.5102 49.5259C41.5411 50.3723 41.7523 51.0255 42.0918 51.5425C42.659 52.6249 43.7285 53.4333 45.3016 53.4834C46.6637 53.9048 48.1259 54.2354 49.198 55.0123C50.1626 55.9631 50.7546 57.2908 50.7791 58.8014C50.8142 60.9651 52.4124 62.6418 54.5277 62.7756C55.9611 63.2266 57.5121 63.5669 58.6055 64.4177C60.369 66.4306 60.3564 69.8299 58.5861 71.8422C57.4828 72.6922 55.9221 73.0334 54.4851 73.4906C53.3209 73.5931 52.5441 74.0508 51.9867 74.7123C51.3325 75.2716 50.8839 76.0454 50.7916 77.1947C50.3591 78.5837 50.0368 80.0873 49.2437 81.1843C48.2896 82.1576 46.9551 82.7488 45.4242 82.7728C45.424 82.7728 45.4239 82.7728 45.4238 82.7728C45.4226 82.7728 45.4212 82.7728 45.4199 82.7728C44.1175 82.7645 43.1474 83.2866 42.5126 84.0659C41.8036 84.9284 41.5131 86.1062 41.6413 87.2289C41.8367 89.0086 43.0752 90.6495 45.3734 90.6755C45.3768 90.6757 45.3801 90.6758 45.3835 90.6758C47.2348 90.7311 48.7822 91.5428 49.7386 92.8191C51.1411 94.9259 50.9301 98.0829 49.1555 99.9127C47.1463 101.686 43.7462 101.666 41.7393 99.8686C40.8859 98.7537 40.5587 97.1844 40.108 95.7447C40.0106 94.6388 39.5788 93.8833 38.9509 93.3308C38.3972 92.6596 37.6245 92.193 36.4612 92.0845C35.0605 91.6312 33.5361 91.2948 32.429 90.4984C31.4564 89.545 30.8626 88.2289 30.8524 86.7518C30.8525 86.7489 30.8525 86.746 30.8527 86.7429C30.8509 86.7101 30.8498 86.6782 30.8484 86.6461C30.7858 84.9586 31.2941 83.9051 32.1019 83.1881C33.4879 81.9679 35.7534 81.7214 37.5244 80.9678C38.3018 80.6382 38.984 80.2104 39.4549 79.5571C39.7993 79.0804 40.0302 78.484 40.1024 77.7193C40.1103 77.6372 40.1166 77.5536 40.1209 77.4677C40.1697 74.4152 42.4269 72.1399 45.4638 72.0809C45.4645 72.0809 45.465 72.0809 45.4655 72.0809C46.9238 72.0917 47.9645 71.4449 48.5891 70.5174C49.096 69.8498 49.3929 69.0142 49.389 68.0991C49.4071 66.8486 48.9416 65.9052 48.229 65.268C47.593 64.5937 46.6718 64.1588 45.4656 64.1777C44.5522 64.1759 43.7194 64.477 43.0557 64.9894C42.1342 65.6193 41.494 66.665 41.5108 68.1264C41.5108 68.1271 41.5106 68.1279 41.5106 68.1287C41.5122 70.4175 40.3668 71.9494 38.8263 72.7303C38.0406 73.1272 37.152 73.33 36.2605 73.3397C33.5649 73.3647 30.8424 71.6104 30.8526 68.0979C30.8523 68.091 30.8519 68.0843 30.8515 68.0775C30.807 65.9546 29.2425 64.3272 27.1506 64.1871C25.7532 63.7483 24.2381 63.4192 23.1409 62.6051C22.3272 61.5111 22.0015 60.006 21.5753 58.6143C21.4398 56.4965 19.7874 54.8929 17.6831 54.8799C17.6829 54.8799 17.6829 54.8799 17.6827 54.8799H17.6825C17.6823 54.8799 17.6823 54.8799 17.6819 54.8799C17.6814 54.8799 17.681 54.8799 17.6803 54.8799C15.5548 54.8693 13.8526 56.49 13.7137 58.6148C13.3416 59.7965 13.0443 61.0603 12.4804 62.0852C12.0366 62.7983 11.5255 63.3202 10.975 63.6782C10.3177 64.0463 9.46901 64.2394 8.34393 64.1776C8.08348 64.1779 7.83311 64.1627 7.59238 64.1334C5.85972 63.6542 4.2484 62.245 3.44302 60.5836C2.9123 58.8206 3.20687 56.772 4.33186 55.3301C5.20676 54.5477 6.52369 53.8976 8.39107 53.4862C8.39171 53.4862 8.39226 53.486 8.3929 53.486C10.5325 53.4439 12.1893 51.8363 12.3082 49.7247C12.739 48.3442 13.0706 46.8557 13.8592 45.7692C14.81 44.8065 16.1333 44.2157 17.6381 44.1891C17.6385 44.1891 17.6392 44.1891 17.6396 44.1891C19.7934 44.1509 21.4397 42.5654 21.575 40.4405C22.009 39.0462 22.3389 37.5396 23.1426 36.4478C24.2336 35.6356 25.7378 35.3103 27.1284 34.8776C28.2962 34.7854 29.0745 34.3298 29.6333 33.666C30.2879 33.1063 30.7391 32.326 30.8369 31.1558C31.2649 29.7797 31.5911 28.2928 32.3712 27.2022C33.322 26.2248 34.6459 25.6174 36.1317 25.5937C38.96 25.6453 40.2394 23.2871 39.9994 21.1336C39.8849 20.0738 39.4001 19.0636 38.5442 18.4145C37.968 17.9751 37.2245 17.7017 36.315 17.6907C36.2815 17.6902 36.2479 17.6898 36.2141 17.69C35.9784 17.6964 35.7578 17.7169 35.5508 17.7504C31.9996 18.3206 32.4797 22.6892 30.8399 25.2112C30.5017 25.7306 30.0743 26.1719 29.5034 26.4854C29.4812 26.4976 29.4585 26.5092 29.436 26.521C29.4257 26.5263 29.4158 26.5318 29.4056 26.5371C28.7711 26.8599 27.9655 27.0307 26.9214 26.9872C24.7707 27.0205 23.1227 28.6038 22.9828 30.7296C22.5608 32.0981 22.2414 33.5754 21.4696 34.6633C20.5128 35.6518 19.168 36.2598 17.6369 36.2851C17.6342 36.2849 17.6316 36.2849 17.629 36.2848C17.1558 36.3073 16.7432 36.3852 16.3815 36.5095C13.4109 37.5253 13.8478 41.6448 12.1938 43.9707C11.474 44.9799 10.3603 45.651 8.40602 45.5846C8.38281 45.5837 8.35989 45.5832 8.33632 45.5823C8.30844 45.5841 8.28129 45.5864 8.25387 45.5885C7.95279 45.6124 7.67629 45.6577 7.42272 45.7227C3.89918 46.6256 4.70511 51.2677 2.67468 53.5828C2.08225 54.2564 1.24889 54.7324 0 54.8627V62.7958C1.09317 62.8768 1.87049 63.2629 2.45137 63.8361C3.55032 64.9209 3.9476 66.6733 4.45933 68.2845C5.08818 70.2648 5.89017 72.0313 8.38107 72.0815C8.38135 72.0815 8.38153 72.0815 8.38171 72.0815H8.3819C9.62391 72.05 10.4455 71.5977 11.0348 70.9078C11.5659 70.2861 11.9085 69.4716 12.2001 68.5983C12.8033 66.7926 13.1896 64.7358 14.5758 63.6118C15.3042 63.021 16.3086 62.6878 17.7662 62.7844C20.0268 62.7167 21.1445 63.6719 21.8383 64.9932C23.2479 67.6777 22.9078 71.8734 26.8465 72.0767C26.8853 72.0787 26.9243 72.0806 26.9639 72.0818C27.447 72.0802 27.8961 72.1318 28.3111 72.2289C29.8534 72.5901 30.9251 73.5814 31.5281 74.8201C32.6203 77.0639 32.1735 80.1193 30.1939 81.7106C29.3754 82.3686 28.2952 82.7761 26.9535 82.7728C26.951 82.7728 26.9483 82.7728 26.9457 82.7728C25.8052 82.7683 24.9171 83.1487 24.2805 83.7446C23.7159 84.273 23.3491 84.9711 23.1791 85.7208C22.677 87.9364 23.8956 90.6024 26.8172 90.6746C26.8654 90.6759 26.9139 90.6764 26.9631 90.6763C27.0374 90.6736 27.11 90.6725 27.1818 90.6719C29.5155 90.6548 30.5926 91.7508 31.2584 93.1962C32.508 95.9089 32.3102 99.8514 36.2536 99.9743C36.2767 99.9734 36.2992 99.9729 36.3221 99.9723C40.1491 99.8555 40.6899 102.738 41.475 105.324C42.0813 107.321 42.8338 109.141 45.3577 109.267C45.3891 109.269 45.4203 109.27 45.4522 109.271C45.4589 109.271 45.4653 109.271 45.4721 109.271C47.9655 109.184 48.7656 107.462 49.3755 105.521C49.8292 104.078 50.1777 102.514 51.04 101.414C51.7804 100.469 52.8997 99.8654 54.79 99.9742C56.3669 99.9639 57.5797 100.532 58.4282 101.411C60.1835 103.229 60.3793 106.376 59.0083 108.489C58.1771 109.77 56.7701 110.672 54.7854 110.665H54.7849C53.5017 110.69 52.3936 111.24 51.6702 112.108C51.1083 112.783 50.7786 113.649 50.7791 114.611C50.8012 115.494 51.0318 116.166 51.4069 116.694C52.1037 117.675 53.2993 118.157 54.5825 118.563C56.1716 119.066 57.895 119.452 58.9724 120.526C59.4639 121.015 59.8205 121.648 59.9691 122.5H67.6768C67.1556 121.097 65.8162 120.064 64.2178 119.97C62.7961 119.521 61.2519 119.175 60.151 118.333C58.3498 116.321 58.331 112.919 60.1173 110.905C61.2194 110.056 62.7785 109.715 64.2144 109.261C66.3266 109.114 67.9347 107.415 67.9256 105.29C67.9245 105.017 67.8969 104.752 67.8451 104.496C67.4823 102.708 65.9352 101.398 64.0034 101.368C63.9991 101.368 63.9948 101.367 63.9904 101.368C57.1097 101.344 57.0255 90.7432 63.9352 90.6769C63.9573 90.6769 63.979 90.6764 64.0012 90.6766C64.0468 90.6745 64.0922 90.6718 64.1366 90.6688C64.1379 90.6686 64.1392 90.6686 64.1405 90.6686C64.1407 90.6684 64.1408 90.6684 64.1409 90.6684C65.0557 90.6069 65.7354 90.3258 66.259 89.8971C67.3866 88.9786 67.7889 87.3845 68.247 85.8213C68.8704 83.7111 69.5976 81.6573 72.3301 81.3995C72.5499 81.3791 72.783 81.3703 73.0295 81.3736C73.1012 81.3746 73.1735 81.3761 73.2475 81.3793C74.2354 81.3433 74.9596 81.0605 75.5113 80.6144C76.5585 79.7723 76.9828 78.3486 77.4022 76.9026C78.0444 74.707 78.678 72.4597 81.4406 72.1198C81.4518 72.1185 81.4633 72.1176 81.4745 72.1162C81.5092 72.1122 81.5438 72.1081 81.5791 72.1047C81.5995 72.1027 81.6205 72.1012 81.6412 72.0994C81.6681 72.0971 81.6949 72.0945 81.7222 72.0925C81.7352 72.0916 81.7486 72.0909 81.7618 72.09C81.9918 72.0749 82.2352 72.0717 82.4937 72.0818C82.5426 72.0823 82.5909 72.082 82.639 72.0811C84.6415 72.0527 85.8353 70.774 86.2239 69.2532C86.5479 67.998 86.3213 66.5781 85.5441 65.5598C84.9165 64.7332 83.9289 64.1714 82.5831 64.1777C81.8276 64.192 81.2249 64.3524 80.735 64.6211C80.7061 64.6369 80.6777 64.653 80.6497 64.6696C80.649 64.67 80.6481 64.6705 80.6474 64.6709C79.3479 65.4375 78.8699 66.9916 78.4033 68.5841C77.7327 70.8626 77.0841 73.2192 74.0932 73.4592C73.8561 73.478 73.6045 73.4837 73.3368 73.4748C70.9755 73.5249 69.3615 75.1589 69.3157 77.5461C69.3157 77.5468 69.3157 77.5473 69.3157 77.548C68.892 79.369 68.2383 80.6547 67.4577 81.5096C66.0128 82.6177 63.9654 82.8997 62.2089 82.3601C60.5625 81.5546 59.1713 79.9543 58.699 78.2276C58.6699 77.9826 58.6555 77.7275 58.6573 77.4622C58.6449 76.0568 59.1854 74.7659 60.0739 73.8008C60.9236 73.0797 62.1587 72.4777 63.8656 72.0814C63.8659 72.0814 63.8661 72.0814 63.8663 72.0814C63.8716 72.0814 63.8768 72.0814 63.882 72.0814C65.4433 72.1011 66.5445 71.4094 67.1836 70.4276C67.8431 69.4187 68.0117 68.1035 67.6886 66.9401C67.2686 65.4167 66.0086 64.1534 63.9047 64.1779C62.2163 64.1375 60.7217 63.3188 59.7638 62.0725C58.3851 60.0467 58.4835 57.0244 60.0699 55.1584C61.153 54.2879 62.6974 53.9313 64.131 53.483C65.7004 53.4227 66.7732 52.6249 67.3486 51.5572C67.6932 51.0417 67.9042 50.3906 67.9261 49.5448C67.9096 48.709 67.7079 48.0613 67.3745 47.5463C66.811 46.468 65.7441 45.6569 64.1728 45.5876C62.7351 45.1307 61.1796 44.7722 60.086 43.9061C58.3451 41.865 58.374 38.445 60.1655 36.4559C62.0075 34.7353 65.1342 34.5692 67.2122 35.9683C68.4729 36.9244 69.2896 38.4345 69.3157 40.1589C69.3065 41.625 69.9246 42.6828 70.8182 43.3304C71.4842 43.8684 72.3266 44.1867 73.2546 44.189C74.1196 44.1654 74.7811 43.9464 75.3015 43.5907C76.3509 43.0163 77.1318 41.9514 77.1905 40.3933C77.614 39.0172 77.9497 37.5379 78.7375 36.4595C79.8098 35.6553 81.2865 35.3136 82.6621 34.8881C84.2258 34.8293 85.2971 34.0386 85.8749 32.9785C86.2236 32.4605 86.4386 31.8039 86.463 30.9472C86.4449 30.101 86.2376 29.4478 85.8963 28.9297C85.3306 27.8653 84.2705 27.0662 82.7152 26.9937C81.5997 26.6391 80.4128 26.3444 79.4256 25.826C78.5901 25.3199 78.002 24.7294 77.6207 24.0942C77.2982 23.4505 77.1344 22.6352 77.1947 21.5791C77.1936 21.2903 77.2122 21.0138 77.2479 20.7494C77.7347 19.0614 79.1014 17.5075 80.7166 16.7125C82.4728 16.1606 84.5258 16.4316 85.9779 17.5333C86.7728 18.3963 87.4344 19.7044 87.8526 21.567V21.5676C87.8703 22.7402 88.3407 23.7758 89.0928 24.5035C89.7937 25.1816 90.7392 25.5923 91.7939 25.5938C93.2506 25.6024 94.2949 24.9598 94.9239 24.0378C95.4194 23.3898 95.7193 22.5858 95.7309 21.7168C95.7448 20.6756 95.398 19.7557 94.7943 19.0584C94.1468 18.2274 93.1256 17.6672 91.7271 17.6903C91.7271 17.6903 91.727 17.6903 91.7268 17.6903C91.7268 17.6903 91.7268 17.6903 91.7266 17.6903C91.7264 17.6903 91.7262 17.6903 91.726 17.6903C88.7159 17.668 87.0271 15.5852 86.6707 13.2639C86.4438 11.7605 86.7725 10.1571 87.6582 8.94888C88.5083 7.79514 89.8711 7.00153 91.7491 6.99932C91.7673 6.99868 91.785 6.99767 91.8029 6.99685C93.9688 6.93736 95.5574 5.4021 95.7179 3.24885C96.1408 1.86818 96.4631 0.377811 97.2556 -0.710749C98.3321 -1.5218 99.8224 -1.86743 101.209 -2.30026C102.771 -2.34488 103.835 -3.13821 104.406 -4.20648C104.765 -4.73608 104.983 -5.40998 105 -6.29309C105.003 -7.52789 104.537 -8.46379 103.829 -9.09913ZM59.4496 14.6642C59.4445 14.6764 59.4392 14.6883 59.434 14.7003C59.423 14.7265 59.412 14.7528 59.4003 14.7786C59.3904 14.8013 59.3799 14.8236 59.3696 14.8459C59.3626 14.8614 59.3557 14.8768 59.3485 14.8922C59.3322 14.9269 59.3153 14.9615 59.2983 14.9959C59.2971 14.9987 59.2957 15.0014 59.2944 15.0041C58.8695 15.8558 58.2234 16.5865 57.3568 17.07C57.3539 17.0716 57.3511 17.0732 57.3483 17.0749C57.3141 17.0939 57.2795 17.1123 57.2446 17.1304C57.2408 17.1325 57.2373 17.1346 57.2334 17.1366C57.1958 17.1561 57.158 17.175 57.1195 17.1935C57.1184 17.1941 57.1172 17.1947 57.1161 17.1952C57.083 17.2112 57.0496 17.2266 57.0159 17.2418C57.0092 17.2448 57.0028 17.248 56.996 17.251C56.9653 17.2647 56.9341 17.2779 56.9029 17.2911C56.8931 17.2952 56.8835 17.2996 56.8736 17.3038C56.847 17.3148 56.8199 17.3251 56.7931 17.3357C56.7781 17.3417 56.7635 17.3478 56.7486 17.3534C56.7223 17.3635 56.6956 17.3729 56.6688 17.3825C56.6529 17.3883 56.6372 17.3943 56.6211 17.4C56.5956 17.4089 56.5697 17.4172 56.5439 17.4257C56.5262 17.4314 56.5088 17.4376 56.491 17.4433C56.4669 17.4509 56.4426 17.458 56.4183 17.4653C56.3983 17.4713 56.3786 17.4775 56.3585 17.4834C56.3316 17.491 56.3043 17.4983 56.2771 17.5056C56.2592 17.5104 56.2415 17.5155 56.2235 17.5201C56.1975 17.5268 56.171 17.5328 56.1448 17.5392C56.1251 17.544 56.1056 17.5489 56.0859 17.5535C56.0609 17.5591 56.0355 17.5642 56.0101 17.5695C55.9887 17.5741 55.9674 17.579 55.9459 17.5833C55.9183 17.5888 55.8904 17.5936 55.8626 17.5987C55.8427 17.6022 55.8232 17.6062 55.8032 17.6095C55.775 17.6144 55.7462 17.6185 55.7177 17.623C55.6978 17.6261 55.6782 17.6295 55.6583 17.6324C55.6257 17.637 55.5929 17.6409 55.56 17.6451C55.5435 17.6471 55.5273 17.6495 55.5108 17.6513C55.4748 17.6556 55.4383 17.6589 55.4019 17.6625C55.3882 17.6639 55.3746 17.6655 55.3607 17.6668C55.3212 17.6703 55.2813 17.6731 55.2413 17.6758C55.2301 17.6766 55.2192 17.6777 55.208 17.6784C55.1638 17.6811 55.119 17.6833 55.0741 17.6851C55.067 17.6854 55.06 17.6858 55.053 17.6862C55.0009 17.688 54.9484 17.6894 54.8955 17.69H54.8953C54.842 17.6907 54.7883 17.6907 54.7342 17.69C54.7289 17.69 54.7237 17.6899 54.7183 17.69C54.6699 17.6905 54.6218 17.6907 54.5739 17.69C54.5615 17.69 54.5494 17.6894 54.5372 17.6893C54.4966 17.6886 54.4561 17.6878 54.4159 17.6864C54.403 17.6857 54.3904 17.685 54.3774 17.6844C54.3382 17.6827 54.2991 17.681 54.2604 17.6786C54.2437 17.6775 54.2271 17.676 54.2104 17.6747C54.176 17.6724 54.1416 17.6699 54.1076 17.6671C54.089 17.6654 54.0707 17.6632 54.0522 17.6614C54.0203 17.6584 53.9886 17.6554 53.9571 17.6518C53.9383 17.6497 53.9197 17.6469 53.9011 17.6446C53.8704 17.6408 53.8395 17.6371 53.8091 17.6329C53.7891 17.6299 53.7695 17.6266 53.7497 17.6235C53.7211 17.6192 53.6923 17.615 53.6638 17.6102C53.6433 17.6067 53.6232 17.6027 53.6031 17.599C53.5756 17.5941 53.5479 17.5893 53.5207 17.584C53.5013 17.5802 53.4822 17.5758 53.4629 17.5718C53.4354 17.566 53.4075 17.5605 53.3804 17.5544C53.3623 17.5502 53.3446 17.5456 53.3268 17.5413C53.2986 17.5347 53.2702 17.5282 53.2424 17.5211C53.2295 17.5177 53.217 17.5142 53.2043 17.5109C53.1718 17.5023 53.139 17.4937 53.1069 17.4845C53.0956 17.4813 53.0847 17.4778 53.0736 17.4746C53.0403 17.4648 53.0069 17.455 52.9739 17.4446C52.9647 17.4416 52.9556 17.4384 52.9463 17.4354C52.912 17.4244 52.8776 17.4132 52.8434 17.4014C52.8384 17.3996 52.8334 17.3978 52.8281 17.3959C52.7904 17.3826 52.7527 17.3691 52.7155 17.3551C52.7155 17.3551 52.7153 17.3551 52.7151 17.355C51.4071 16.8599 50.5018 15.8628 50.0009 14.6749C49.9954 14.6618 49.9902 14.6489 49.985 14.6359C49.9744 14.6104 49.9637 14.5851 49.9536 14.5595C49.9414 14.5285 49.9296 14.4973 49.9178 14.4659C49.9149 14.4582 49.9119 14.4505 49.909 14.4429C48.7362 11.2774 50.327 6.94498 54.7152 6.99841C59.2073 6.91671 60.7783 11.4741 59.4496 14.6642ZM59.4937 88.9339C59.4928 88.9362 59.4917 88.9385 59.4908 88.9408C59.4765 88.9772 59.4619 89.0135 59.4467 89.0496C59.4419 89.0613 59.4367 89.0728 59.4318 89.0846C59.4205 89.1111 59.4091 89.1379 59.3974 89.1642C59.3899 89.181 59.3821 89.1977 59.3745 89.2144C59.3648 89.2355 59.3554 89.2567 59.3454 89.2776C59.3338 89.3024 59.3216 89.327 59.3095 89.3517C59.3033 89.3643 59.2973 89.3771 59.291 89.3896C58.8646 90.2422 58.2162 90.9734 57.3464 91.4557C57.3451 91.4565 57.3439 91.4573 57.3425 91.458C57.3065 91.4779 57.2702 91.4973 57.2335 91.5163C57.2315 91.5174 57.2296 91.5184 57.2276 91.5195C57.195 91.5363 57.162 91.5526 57.129 91.5688C57.1226 91.5718 57.1164 91.5751 57.11 91.5782C57.0784 91.5933 57.0465 91.608 57.0142 91.6225C57.0061 91.6262 56.9981 91.6301 56.9901 91.6338C56.9618 91.6464 56.933 91.6584 56.9043 91.6705C56.8919 91.6758 56.8798 91.6813 56.8674 91.6864C56.8395 91.6979 56.811 91.7089 56.7826 91.7199C56.7691 91.7252 56.756 91.7308 56.7424 91.7358C56.7168 91.7456 56.6904 91.7548 56.6645 91.7643C56.6478 91.7702 56.6315 91.7765 56.6148 91.7823C56.5918 91.7903 56.5682 91.7978 56.5449 91.8055C56.5247 91.8122 56.5048 91.8191 56.4847 91.8255C56.4634 91.8322 56.4416 91.8383 56.4202 91.845C56.3974 91.8517 56.375 91.8589 56.352 91.8653C56.3321 91.8711 56.312 91.8762 56.292 91.8817C56.2669 91.8884 56.2422 91.8954 56.2169 91.9019C56.1942 91.9077 56.1711 91.9131 56.1482 91.9186C56.1252 91.9241 56.1027 91.9299 56.0794 91.9351C56.0553 91.9406 56.0306 91.9454 56.0064 91.9505C55.984 91.9553 55.9619 91.9603 55.9393 91.9648C55.918 91.9689 55.8962 91.9726 55.8748 91.9765C55.8488 91.9814 55.8228 91.9864 55.7966 91.9909C55.7747 91.9946 55.7524 91.9978 55.7303 92.0012C55.7041 92.0053 55.678 92.0097 55.6516 92.0134C55.6233 92.0174 55.5947 92.0208 55.5661 92.0244C55.5455 92.027 55.5248 92.0299 55.504 92.0324C55.4717 92.0361 55.4391 92.0389 55.4065 92.0422C55.389 92.0439 55.3715 92.0461 55.3538 92.0476C55.3187 92.0506 55.283 92.0531 55.2475 92.0555C55.2319 92.0566 55.2166 92.058 55.201 92.059C55.1608 92.0615 55.12 92.0632 55.0792 92.0648C55.068 92.0653 55.0572 92.066 55.046 92.0665C54.9981 92.0682 54.9499 92.0692 54.9014 92.0699C54.897 92.0699 54.8927 92.0701 54.8883 92.0701C54.8351 92.0708 54.7812 92.0706 54.7271 92.0699C54.7259 92.0699 54.7247 92.0699 54.7233 92.0699C54.6707 92.0705 54.6186 92.0705 54.5667 92.0697C54.5568 92.0695 54.547 92.0692 54.5371 92.0689C54.4942 92.0682 54.4512 92.0674 54.4089 92.0657C54.3931 92.0651 54.3777 92.0641 54.362 92.0632C54.3257 92.0616 54.2893 92.06 54.2535 92.0577C54.2364 92.0566 54.2194 92.0552 54.2023 92.0539C54.1682 92.0513 54.1342 92.049 54.1005 92.0459C54.0833 92.0443 54.0661 92.0424 54.0489 92.0407C54.0158 92.0373 53.9828 92.0342 53.9503 92.0304C53.9285 92.0279 53.9069 92.0247 53.8852 92.0219C53.8575 92.0185 53.8297 92.0151 53.8023 92.0112C53.782 92.0084 53.762 92.0048 53.7418 92.0018C53.7134 91.9973 53.685 91.9932 53.6568 91.9884C53.6392 91.9854 53.622 91.9818 53.6045 91.9788C53.5743 91.9733 53.5438 91.968 53.5139 91.962C53.4988 91.959 53.4841 91.9556 53.4693 91.9525C53.4372 91.9458 53.4051 91.9392 53.3734 91.9322C53.3595 91.9289 53.3459 91.9255 53.3322 91.9221C53.2998 91.9144 53.2674 91.9069 53.2356 91.8987C53.2246 91.8959 53.214 91.8929 53.203 91.8899C53.1686 91.8809 53.1343 91.8718 53.1003 91.8621C53.0858 91.8578 53.0716 91.8534 53.0572 91.8491C53.0272 91.8402 52.997 91.8314 52.9673 91.822C52.9562 91.8183 52.9452 91.8145 52.9339 91.8108C52.9015 91.8002 52.8689 91.7897 52.8369 91.7787C52.8305 91.7764 52.8241 91.7738 52.8177 91.7717C51.4516 91.2897 50.5109 90.2697 49.9978 89.0485C49.9925 89.0358 49.9875 89.023 49.9822 89.0104C49.9717 88.9845 49.9609 88.9588 49.9508 88.9329C49.9379 88.9005 49.9255 88.8677 49.9134 88.8349C49.9111 88.8287 49.9086 88.8225 49.9063 88.8165C48.7373 85.6497 50.3335 81.3199 54.7226 81.3781C59.1584 81.3016 60.7409 85.7517 59.4937 88.9339ZM59.4407 51.8727C59.4343 51.8876 59.4277 51.9023 59.4212 51.9174C59.4112 51.9406 59.4013 51.9639 59.391 51.987C59.3807 52.0099 59.3701 52.0325 59.3595 52.0552C59.3526 52.0701 59.346 52.0853 59.3389 52.1003C59.3228 52.1339 59.3065 52.1672 59.29 52.2004C59.288 52.2043 59.2862 52.2082 59.2842 52.2121C58.8387 53.0977 58.1533 53.851 57.2292 54.3291C57.2245 54.3317 57.2196 54.3345 57.2147 54.3369C57.1837 54.3527 57.1521 54.3683 57.1205 54.3835C57.1127 54.3874 57.1051 54.3913 57.0971 54.3952C57.0647 54.4106 57.0318 54.4256 56.9988 54.4403C56.9914 54.4437 56.9843 54.4472 56.9769 54.4504C56.949 54.4628 56.9205 54.4746 56.8923 54.4865C56.8794 54.4918 56.8669 54.4975 56.854 54.5027C56.8316 54.5119 56.8085 54.5206 56.7857 54.5296C56.7667 54.537 56.7479 54.5448 56.7287 54.5519C56.7062 54.5604 56.6833 54.5683 56.6605 54.5765C56.6408 54.5836 56.6211 54.591 56.6011 54.5979C56.5782 54.6058 56.555 54.6132 56.5317 54.6206C56.5113 54.6273 56.4913 54.6342 56.4709 54.6406C56.4505 54.647 56.4298 54.6528 56.4093 54.659C56.3856 54.6661 56.362 54.6734 56.338 54.6801C56.319 54.6854 56.2998 54.6904 56.2807 54.6954C56.2547 54.7025 56.2289 54.7097 56.2027 54.7163C56.186 54.7206 56.1691 54.7243 56.1523 54.7283C56.1232 54.7354 56.0942 54.7425 56.0647 54.7491C56.0509 54.7522 56.0365 54.7549 56.0223 54.758C55.9898 54.7649 55.9574 54.772 55.9245 54.7784C55.9075 54.7816 55.8904 54.7846 55.8735 54.7876C55.843 54.7933 55.8126 54.7989 55.7818 54.8041C55.7601 54.8076 55.738 54.8107 55.7163 54.814C55.6897 54.8182 55.6633 54.8225 55.6365 54.8263C55.6119 54.8297 55.587 54.8324 55.5623 54.8354C55.5378 54.8385 55.5134 54.8419 55.4885 54.8446C55.4633 54.8475 55.4376 54.8497 55.4121 54.8521C55.3875 54.8546 55.363 54.8574 55.3383 54.8595C55.3059 54.8622 55.2732 54.8643 55.2404 54.8664C55.2221 54.8677 55.204 54.8692 55.1856 54.8703C55.1501 54.8724 55.1142 54.8738 55.0783 54.8752C55.0622 54.876 55.0464 54.8769 55.0301 54.8775C54.9898 54.8787 54.9488 54.8793 54.9079 54.88C54.896 54.8801 54.8843 54.8806 54.8724 54.8806C54.822 54.8811 54.7711 54.8808 54.7197 54.88C54.717 54.8798 54.7142 54.88 54.7113 54.8798C54.6574 54.8802 54.604 54.8801 54.551 54.8792C54.5478 54.8792 54.5445 54.879 54.5415 54.8789C54.4917 54.8782 54.4422 54.8767 54.3931 54.8746C54.3849 54.8744 54.3768 54.8737 54.3686 54.8734C54.3246 54.8714 54.2809 54.8691 54.2377 54.8663C54.2313 54.866 54.225 54.8652 54.2186 54.8647C54.1737 54.8617 54.129 54.8581 54.0847 54.854C54.0765 54.8532 54.0682 54.8521 54.06 54.8514C54.018 54.8473 53.9759 54.8429 53.9345 54.8381C53.9246 54.8369 53.9151 54.8353 53.9053 54.8341C53.8656 54.8293 53.8258 54.8242 53.7868 54.8184C53.7709 54.8161 53.7553 54.8133 53.7393 54.8108C53.7066 54.8056 53.6738 54.8007 53.6415 54.795C53.6243 54.7921 53.6074 54.7886 53.5904 54.7856C53.5597 54.7799 53.5288 54.7744 53.4985 54.7683C53.4859 54.7658 53.4733 54.7628 53.4607 54.7601C53.4263 54.7529 53.392 54.7457 53.358 54.7378C53.3491 54.7358 53.3403 54.7334 53.3312 54.7312C53.2941 54.7225 53.257 54.7136 53.2203 54.704C53.2118 54.7019 53.2036 54.6994 53.1953 54.6971C53.1584 54.6873 53.1213 54.6773 53.085 54.6668C53.0784 54.665 53.0722 54.6628 53.0657 54.661C53.0276 54.6499 52.9897 54.6384 52.9524 54.6265C52.9487 54.6253 52.9453 54.624 52.9418 54.623C52.9016 54.61 52.8616 54.5966 52.8222 54.5828C52.821 54.5823 52.8197 54.5819 52.8185 54.5815C51.4883 54.1128 50.5618 53.1352 50.04 51.9591C50.0371 51.9526 50.0343 51.9458 50.0315 51.9391C50.0177 51.9077 50.004 51.8761 49.9908 51.8445C49.9849 51.8303 49.9792 51.8159 49.9734 51.8014C49.9636 51.7775 49.9535 51.7533 49.9441 51.7289C49.9317 51.6973 49.9198 51.6654 49.908 51.6336C49.9055 51.6266 49.9025 51.6194 49.9 51.6123C48.74 48.443 50.348 44.1196 54.7387 44.1883C59.224 44.1205 60.7807 48.6864 59.4407 51.8727Z" fill="#0152FF" fill-opacity="0.34"/>
</svg>
